<svg xmlns="http://www.w3.org/2000/svg" viewBox="0 0 900 760" font-family="'Poppins',Arial,sans-serif">
  <defs>
    <linearGradient id="motorosGrad" x1="0%" y1="0%" x2="100%" y2="100%">
      <stop offset="0%" stop-color="#8FC7FF"/>
      <stop offset="45%" stop-color="#3B82F6"/>
      <stop offset="100%" stop-color="#1D4ED8"/>
    </linearGradient>
  </defs>
  <rect width="900" height="760" fill="#060a12"/>
  <g transform="translate(215,40) scale(1.05) skewX(-10)">
    <path d="M78,66 L78,74 L144,60 A9,9 0 0 1 144,78 L144,60 Z" fill="url(#motorosGrad)" opacity="0.5"/>
    <path d="M42,98 L42,112 L144,92 A13,13 0 0 1 144,118 L144,92 Z" fill="url(#motorosGrad)" opacity="0.75"/>
    <path d="M6,134 L6,156 L146,128 A17,17 0 0 1 146,162 L146,128 Z" fill="url(#motorosGrad)" opacity="1"/>
    <path d="M144,258 L144,55 L232,195 L322,20 L322,258" fill="none" stroke="url(#motorosGrad)" stroke-width="48" stroke-linecap="butt" stroke-linejoin="miter" stroke-miterlimit="3"/>
  </g>
  <g transform="skewX(-10)" font-size="92" font-weight="700" font-style="italic">
    <text x="242" y="600" fill="#ffffff">Motor</text>
    <text x="528" y="600" fill="url(#motorosGrad)">OS</text>
  </g>
  <text x="450" y="660" font-size="20" font-weight="600" fill="#6fa3ff" text-anchor="middle" letter-spacing="3">INTELIGENCIA QUE ACELERA TU NEGOCIO</text>
</svg>
