<svg xmlns="http://www.w3.org/2000/svg" viewBox="0 0 620 170" font-family="'Poppins',Arial,sans-serif">
  <g transform="translate(6,2) scale(0.42) skewX(-10)" fill="#0b1220">
    <path d="M78,66 L78,74 L144,60 A9,9 0 0 1 144,78 L144,60 Z" opacity="0.55"/>
    <path d="M42,98 L42,112 L144,92 A13,13 0 0 1 144,118 L144,92 Z" opacity="0.78"/>
    <path d="M6,134 L6,156 L146,128 A17,17 0 0 1 146,162 L146,128 Z" opacity="1"/>
    <path d="M144,258 L144,55 L232,195 L322,20 L322,258" fill="none" stroke="#0b1220" stroke-width="48" stroke-linecap="butt" stroke-linejoin="miter" stroke-miterlimit="3"/>
  </g>
  <g transform="skewX(-10)" font-size="70" font-weight="700" font-style="italic" fill="#0b1220">
    <text x="184" y="113">Motor</text>
    <text x="398" y="113">OS</text>
  </g>
</svg>
